<svg xmlns="http://www.w3.org/2000/svg" width="750" height="1334" viewBox="0 0 750 1334">
  <!-- L'Animateur Vedette Immortel, boss du Studio de Télé-Achat Abandonné, cadrage « face ». Aucun texte. -->
  <defs>
    <pattern id="studio-mur" width="100" height="60" patternUnits="userSpaceOnUse">
      <rect width="100" height="60" fill="#1e1c2e"/>
      <rect x="2" y="2" width="96" height="56" rx="4" fill="#26233c"/>
      <circle cx="20" cy="18" r="3" fill="#2e2a48"/>
      <circle cx="72" cy="40" r="4" fill="#2e2a48"/>
      <circle cx="48" cy="50" r="2.5" fill="#2e2a48"/>
    </pattern>
  </defs>
  <rect x="0" y="0" width="750" height="1040" fill="url(#studio-mur)"/>
  <rect x="0" y="0" width="750" height="64" fill="#171526"/>
  <g stroke="#05060c" stroke-width="7">
    <path d="M0 120 H750" stroke="#3a3652" stroke-width="14"/>
    <rect x="90" y="120" width="60" height="44" rx="8" fill="#3a3652"/>
    <ellipse cx="120" cy="240" rx="90" ry="70" fill="#fde047" opacity="0.08"/>
    <rect x="600" y="120" width="60" height="44" rx="8" fill="#3a3652"/>
    <ellipse cx="630" cy="240" rx="90" ry="70" fill="#fde047" opacity="0.08"/>
    <rect x="345" y="120" width="60" height="44" rx="8" fill="#3a3652"/>
  </g>
  <ellipse cx="375" cy="700" rx="340" ry="270" fill="#2e2a48" opacity="0.42"/>
  <g stroke="#05060c" stroke-width="7">
    <rect x="80" y="560" width="110" height="80" rx="10" fill="#33304e"/>
    <rect x="190" y="580" width="60" height="40" rx="6" fill="#26233c"/>
    <circle cx="245" cy="600" r="16" fill="#1a2430"/>
    <circle cx="608" cy="600" r="30" fill="#26233c"/>
    <circle cx="608" cy="600" r="12" fill="#c94f3d"/>
  </g>
  <path d="M120 300 q60 -60 110 -10 M520 280 q70 -50 110 0" fill="none" stroke="#3a3652" stroke-width="6"/>
  <path d="M170 268 l8 -16 l16 12 l14 -18 l6 22 l16 4" fill="none" stroke="#fde047" stroke-width="5" opacity="0.5"/>
  <rect x="0" y="1040" width="750" height="294" fill="#232038"/>
  <path d="M0 1040 H750" stroke="#05060c" stroke-width="6"/>
  <g fill="none" stroke="#1a1828" stroke-width="8">
    <path d="M100 1130 q100 -40 220 0 q100 40 180 0 q80 -30 160 10"/>
  </g>
  <rect x="0" y="0" width="55" height="1334" fill="#05060c" opacity="0.24"/>
  <rect x="695" y="0" width="55" height="1334" fill="#05060c" opacity="0.24"/>
  <ellipse cx="375" cy="640" rx="320" ry="420" fill="#c084fc" opacity="0.10"/>
  <ellipse cx="375" cy="640" rx="240" ry="330" fill="#c084fc" opacity="0.13"/>
  <ellipse cx="375" cy="640" rx="160" ry="220" fill="#c084fc" opacity="0.16"/>
  <g fill="none" stroke="#c084fc" stroke-width="7" opacity="0.7">
    <path d="M195 430 a16 16 0 1 1 16 16 a11 11 0 1 0 -16 -16"/>
    <path d="M558 490 a16 16 0 1 1 16 16 a11 11 0 1 0 -16 -16"/>
  </g>
  <ellipse cx="375" cy="1048" rx="200" ry="26" fill="#05060c" opacity="0.45"/>
  <g stroke="#05060c" stroke-linejoin="round" stroke-width="11">
    <path d="M255 525 C222 570 205 660 198 780 C192 895 190 975 188 1050 L562 1050 C560 975 558 895 552 780 C545 660 528 570 495 525 C462 498 432 490 375 490 C318 490 288 498 255 525 Z" fill="#2b2b4a"/>
    <path d="M522 565 C545 670 552 860 558 1020 L562 1050 C556 900 548 790 540 690 C534 620 528 590 522 565 Z" fill="#17172e" stroke-width="6"/>
    <g fill="#fde047" stroke-width="4">
      <circle cx="300" cy="620" r="8"/><circle cx="340" cy="700" r="7"/><circle cx="290" cy="800" r="8"/>
      <circle cx="330" cy="900" r="7"/><circle cx="430" cy="640" r="7"/><circle cx="460" cy="740" r="8"/>
      <circle cx="425" cy="850" r="7"/><circle cx="370" cy="960" r="7"/><circle cx="470" cy="950" r="7"/>
    </g>
    <path d="M330 502 L375 565 L420 502 L400 494 L375 520 L350 494 Z" fill="#17172e" stroke-width="7"/>
    <path d="M345 505 L375 552 L405 505 L392 496 L375 515 L358 496 Z" fill="#e8e4d8" stroke-width="6"/>
    <path d="M368 540 L375 528 L382 540 L384 610 L375 622 L366 610 Z" fill="#c94f3d" stroke-width="6"/>
    <path d="M352 560 q-20 16 -8 34 M398 560 q20 16 8 34" fill="none" stroke="#c94f3d" stroke-width="7"/>
    <path d="M258 530 C215 560 195 620 205 680 L265 672 C258 628 270 585 292 562 Z" fill="#2b2b4a" stroke-width="10"/>
    <circle cx="232" cy="688" r="32" fill="#c8bfae" stroke-width="8"/>
    <g stroke-width="8">
      <path d="M222 700 L206 590" stroke="#1f2937" stroke-width="16"/>
      <circle cx="203" cy="566" r="38" fill="#9ca3af"/>
      <path d="M182 552 h42 M178 572 h50" stroke="#6b7280" stroke-width="7"/>
      <path d="M170 528 l-20 -12 l7 18 l-21 -7" fill="none" stroke="#fde047" stroke-width="7"/>
      <path d="M232 520 l22 -8 l-6 18 l20 -4" fill="none" stroke="#fde047" stroke-width="7"/>
    </g>
    <path d="M492 530 C540 555 562 615 552 675 L495 668 C502 628 490 588 468 565 Z" fill="#2b2b4a" stroke-width="10"/>
    <circle cx="528" cy="682" r="30" fill="#c8bfae" stroke-width="8"/>
    <path d="M528 668 v18 M518 676 h20" stroke-width="5"/>
    <rect x="345" y="448" width="60" height="56" fill="#c8bfae" stroke-width="8"/>
    <path d="M278 322 C278 252 308 206 375 206 C442 206 472 252 472 322 C472 394 455 448 425 470 C410 481 393 486 375 486 C357 486 340 481 325 470 C295 448 278 394 278 322 Z" fill="#c8bfae" stroke-width="12"/>
    <path d="M270 305 C265 235 305 186 375 184 C445 186 485 235 480 305 C462 262 432 240 375 240 C318 240 288 262 270 305 Z" fill="#3a2a1c" stroke-width="9"/>
    <circle cx="325" cy="352" r="26" fill="#e8f4ff" fill-opacity="0.7" stroke-width="8"/>
    <circle cx="325" cy="352" r="12" fill="#05060c"/>
    <circle cx="325" cy="348" r="4" fill="#fde047"/>
    <circle cx="425" cy="352" r="26" fill="#e8f4ff" fill-opacity="0.7" stroke-width="8"/>
    <circle cx="425" cy="352" r="12" fill="#05060c"/>
    <circle cx="425" cy="348" r="4" fill="#fde047"/>
    <path d="M286 312 q34 -18 60 -6 M464 310 q-34 -20 -60 -8" fill="none" stroke-width="9"/>
    <path d="M312 420 Q375 408 438 420 Q450 456 415 474 Q375 484 335 474 Q300 456 312 420 Z" fill="#e8e4d8" stroke-width="9"/>
    <path d="M312 420 Q375 408 438 420" fill="none" stroke-width="6"/>
    <path d="M340 444 q35 -12 70 0" fill="none" stroke-width="6"/>
    <path d="M455 392 l4 -16 l4 16 l16 4 l-16 4 l-4 16 l-4 -16 l-16 -4 Z" fill="#fde047" stroke-width="5"/>
    <path d="M290 400 l3 -12 l3 12 l12 3 l-12 3 l-3 12 l-3 -12 l-12 -3 Z" fill="#fde047" stroke-width="4"/>
    <path d="M310 172 L320 102 L350 142 L375 82 L400 142 L430 102 L440 172 Z" fill="#caa23a" stroke-width="8"/>
  </g>
</svg>
