<svg xmlns="http://www.w3.org/2000/svg" width="750" height="1334" viewBox="0 0 750 1334">
  <defs>
    <pattern id="metro-tiles" width="66" height="34" patternUnits="userSpaceOnUse">
      <rect width="66" height="34" fill="#262b33"/>
      <rect x="1.5" y="1.5" width="30" height="14" rx="2" fill="#3d4450"/>
      <rect x="34.5" y="1.5" width="30" height="14" rx="2" fill="#434c59"/>
      <rect x="-15" y="17.5" width="30" height="14" rx="2" fill="#434c59"/>
      <rect x="18" y="17.5" width="30" height="14" rx="2" fill="#3d4450"/>
      <rect x="51" y="17.5" width="30" height="14" rx="2" fill="#404854"/>
    </pattern>
  </defs>
  <rect x="0" y="0" width="750" height="1030" fill="url(#metro-tiles)"/>
  <path d="M0 0 H750 V90 Q375 150 0 90 Z" fill="#141820"/>
  <path d="M40 150 Q375 110 710 150 Q375 130 40 150 Z" fill="#0f131a" opacity="0.6"/>
  <path d="M285 230 Q375 190 465 230 L465 420 Q375 380 285 420 Z" fill="#1c212a" stroke="#05060c" stroke-width="5"/>
  <ellipse cx="120" cy="330" rx="130" ry="90" fill="#7dd3fc" opacity="0.08"/>
  <ellipse cx="645" cy="400" rx="120" ry="85" fill="#7dd3fc" opacity="0.07"/>
  <ellipse cx="375" cy="700" rx="330" ry="260" fill="#26303a" opacity="0.35"/>
  <g stroke="#05060c" stroke-width="5">
    <rect x="70" y="480" width="120" height="46" rx="6" fill="#2a303a"/>
    <rect x="82" y="492" width="96" height="22" rx="4" fill="#4a5462"/>
    <rect x="585" y="545" width="100" height="40" rx="6" fill="#2a303a"/>
    <rect x="596" y="556" width="78" height="18" rx="4" fill="#4a5462"/>
  </g>
  <path d="M30 90 Q120 210 60 330" fill="none" stroke="#10141b" stroke-width="6"/>
  <path d="M720 95 Q660 240 700 360" fill="none" stroke="#10141b" stroke-width="6"/>
  <rect x="0" y="1010" width="750" height="324" fill="#20242b"/>
  <path d="M0 1010 H750" stroke="#05060c" stroke-width="6"/>
  <rect x="40" y="1180" width="670" height="14" fill="#4a5260" stroke="#05060c" stroke-width="4"/>
  <rect x="90" y="1230" width="570" height="12" fill="#3d444f" stroke="#05060c" stroke-width="4"/>
  <g fill="#2a2f38" stroke="#05060c" stroke-width="3">
    <rect x="60" y="1150" width="70" height="18" rx="3"/>
    <rect x="230" y="1155" width="70" height="18" rx="3"/>
    <rect x="400" y="1150" width="70" height="18" rx="3"/>
    <rect x="570" y="1155" width="70" height="18" rx="3"/>
  </g>
  <path d="M120 1080 l26 -12 l18 14 l-30 10 Z" fill="#333a45" stroke="#05060c" stroke-width="3"/>
  <path d="M600 1105 l30 -8 l14 16 l-34 6 Z" fill="#333a45" stroke="#05060c" stroke-width="3"/>
  <ellipse cx="480" cy="1120" rx="70" ry="16" fill="#2e3542"/>
  <rect x="0" y="0" width="60" height="1334" fill="#05060c" opacity="0.22"/>
  <rect x="690" y="0" width="60" height="1334" fill="#05060c" opacity="0.22"/>
  <rect x="0" y="0" width="750" height="50" fill="#05060c" opacity="0.18"/>
  <ellipse cx="375" cy="640" rx="320" ry="420" fill="#fde047" opacity="0.10"/>
  <ellipse cx="375" cy="640" rx="240" ry="330" fill="#fde047" opacity="0.14"/>
  <ellipse cx="375" cy="640" rx="160" ry="220" fill="#fde047" opacity="0.18"/>
  <path d="M180 420 l-14 -20 l14 -6 l-12 -18" fill="none" stroke="#fde047" stroke-width="6" stroke-linecap="round" opacity="0.8"/>
  <path d="M570 470 l16 -22 l-14 -6 l14 -18" fill="none" stroke="#fde047" stroke-width="6" stroke-linecap="round" opacity="0.8"/>
  <path d="M210 800 l-16 -14 l12 -10" fill="none" stroke="#fde047" stroke-width="5" stroke-linecap="round" opacity="0.7"/>
  <ellipse cx="375" cy="1040" rx="230" ry="26" fill="#05060c" opacity="0.45"/>
  <g stroke="#05060c" stroke-linejoin="round">
    <path d="M245 520 C210 560 195 640 185 760 C175 880 170 970 165 1050 L585 1050 C580 970 575 880 565 760 C555 640 540 560 505 520 C470 495 440 488 375 488 C310 488 280 495 245 520 Z" fill="#6b7f6e" stroke-width="12"/>
    <path d="M540 560 C556 660 562 820 566 1000 L585 1050 C580 940 574 830 565 760 C557 668 550 610 540 560 Z" fill="#3a4a42" stroke-width="6"/>
    <path d="M330 495 L375 560 L420 495 L400 488 L375 510 L350 488 Z" fill="#3a4a42" stroke-width="6"/>
    <path d="M375 560 V1050" stroke="#3a4a42" stroke-width="8"/>
    <path d="M375 560 V1050" stroke="#05060c" stroke-width="2" opacity="0.4"/>
    <g fill="#caa23a" stroke-width="5">
      <circle cx="375" cy="590" r="14"/>
      <circle cx="375" cy="700" r="14"/>
      <circle cx="375" cy="810" r="14"/>
      <circle cx="375" cy="920" r="14"/>
      <circle cx="375" cy="1010" r="14"/>
    </g>
    <g fill="#caa23a" stroke-width="6">
      <rect x="228" y="502" width="92" height="26" rx="12"/>
      <rect x="430" y="502" width="92" height="26" rx="12"/>
    </g>
    <path d="M236 528 v14 M260 528 v14 M284 528 v14 M308 528 v14" stroke="#05060c" stroke-width="4"/>
    <path d="M442 528 v14 M466 528 v14 M490 528 v14 M514 528 v14" stroke="#05060c" stroke-width="4"/>
    <path d="M258 528 C215 505 175 445 168 370 L225 350 C230 420 250 470 285 495 Z" fill="#6b7f6e" stroke-width="10"/>
    <circle cx="196" cy="312" r="34" fill="#9cb08a" stroke-width="8"/>
    <g>
      <rect x="184" y="236" width="22" height="86" rx="9" fill="#1e3350" transform="rotate(-18 195 280)"/>
      <path d="M186 222 H272 Q296 222 296 250 Q296 278 266 278 H196 Z" fill="#caa23a" stroke-width="8"/>
      <circle cx="262" cy="250" r="11" fill="#05060c"/>
      <path d="M186 222 v14" stroke-width="6"/>
      <path d="M320 230 q22 -6 26 -24 M330 258 q26 -2 34 -20" fill="none" stroke="#05060c" stroke-width="4" opacity="0.55"/>
    </g>
    <path d="M492 528 C540 560 560 640 548 700 L490 700 C498 646 484 590 462 560 Z" fill="#6b7f6e" stroke-width="10"/>
    <circle cx="540" cy="706" r="32" fill="#9cb08a" stroke-width="8"/>
    <g>
      <path d="M540 706 v22" stroke-width="5"/>
      <circle cx="540" cy="736" r="9" fill="none" stroke-width="5"/>
      <rect x="512" y="745" width="56" height="80" rx="8" fill="#caa23a" stroke-width="7"/>
      <rect x="524" y="757" width="32" height="56" rx="4" fill="#fde047" stroke-width="4"/>
      <circle cx="540" cy="785" r="8" fill="#fb923c"/>
      <path d="M512 785 h56" stroke-width="4"/>
      <ellipse cx="540" cy="785" rx="70" ry="80" fill="#fde047" opacity="0.16" stroke="none"/>
    </g>
    <rect x="343" y="440" width="64" height="60" fill="#9cb08a" stroke-width="8"/>
    <path d="M265 320 C265 255 300 205 375 205 C450 205 485 255 485 320 C485 400 465 455 430 478 C415 490 395 496 375 496 C355 496 335 490 320 478 C285 455 265 400 265 320 Z" fill="#9cb08a" stroke-width="12"/>
    <path d="M452 268 C472 300 474 372 452 428 C466 392 470 340 460 300 Z" fill="#3a4a42" stroke="none" opacity="0.5"/>
    <path d="M265 350 q-26 8 -22 30 q4 20 26 14 Z" fill="#9cb08a" stroke-width="7"/>
    <path d="M485 350 q26 8 22 30 q-4 20 -26 14 Z" fill="#9cb08a" stroke-width="7"/>
    <g>
      <ellipse cx="322" cy="352" rx="40" ry="44" fill="#e8e4d8" stroke-width="7"/>
      <path d="M292 330 l16 8 M300 306 l12 14 M344 316 l-10 12" stroke="#c94f3d" stroke-width="4"/>
      <circle cx="322" cy="356" r="17" fill="#c94f3d" stroke-width="5"/>
      <circle cx="322" cy="356" r="7" fill="#05060c"/>
    </g>
    <g>
      <path d="M408 340 q28 -14 56 0 q-4 34 -30 34 q-24 0 -26 -34 Z" fill="#e8e4d8" stroke-width="7"/>
      <circle cx="438" cy="356" r="14" fill="#c94f3d" stroke-width="5"/>
      <circle cx="438" cy="356" r="6" fill="#05060c"/>
    </g>
    <path d="M272 306 L356 330" fill="none" stroke-width="11" stroke-linecap="round"/>
    <path d="M478 306 L398 328" fill="none" stroke-width="11" stroke-linecap="round"/>
    <path d="M368 380 q10 14 14 0 q-6 -6 -14 0 Z" fill="#3a4a42" stroke-width="5"/>
    <path d="M375 386 v14" stroke-width="4"/>
    <g>
      <path d="M292 430 Q375 418 458 428 Q470 432 462 448 Q452 478 430 492 Q400 504 375 504 Q350 504 320 492 Q298 478 288 448 Q280 432 292 430 Z" fill="#2b1a12" stroke-width="8"/>
      <path d="M310 432 l10 22 l10 -20 l12 24 l12 -22 l12 22 l10 -24 l10 20 l8 -20 Z" fill="#e8e0c8" stroke-width="4"/>
      <path d="M400 496 l10 -18 l10 16 Z" fill="#e8e0c8" stroke-width="4"/>
      <path d="M292 430 Q375 418 458 428 Q430 420 375 422 Q320 424 292 430 Z" fill="#7f1d1d" stroke-width="5"/>
    </g>
    <g>
      <path d="M255 268 Q268 176 375 172 Q482 176 495 268 L470 282 Q375 262 280 282 Z" fill="#1e3350" stroke-width="10"/>
      <path d="M258 268 Q375 240 492 268" fill="none" stroke="#caa23a" stroke-width="10"/>
      <circle cx="375" cy="236" r="13" fill="#caa23a" stroke-width="5"/>
      <circle cx="375" cy="236" r="4" fill="#05060c" stroke="none"/>
      <path d="M258 282 Q375 250 492 282 Q480 300 440 304 Q375 312 310 304 Q270 300 258 282 Z" fill="#1e3350" stroke-width="8"/>
    </g>
    <path d="M310 168 L320 98 L350 138 L375 78 L400 138 L430 98 L440 168 Z" fill="#caa23a" stroke-width="8"/>
  </g>
</svg>
