<svg xmlns="http://www.w3.org/2000/svg" width="750" height="1334" viewBox="0 0 750 1334">
  <defs>
    <pattern id="livre-maudit-b-shelf" width="96" height="82" patternUnits="userSpaceOnUse">
      <rect width="96" height="82" fill="#2a1f15"/>
      <rect x="0" y="36" width="96" height="8" fill="#3a2c1f"/>
      <rect x="0" y="76" width="96" height="6" fill="#3a2c1f"/>
      <g stroke="#150f0a" stroke-width="2">
        <rect x="4" y="8" width="9" height="28" rx="2" fill="#33202b"/>
        <rect x="15" y="11" width="7" height="25" rx="2" fill="#1d2833"/>
        <rect x="24" y="6" width="10" height="30" rx="2" fill="#3a2a1c"/>
        <rect x="36" y="12" width="6" height="24" rx="2" fill="#33202b"/>
        <rect x="52" y="9" width="8" height="27" rx="2" fill="#2e2a20"/>
        <rect x="62" y="11" width="8" height="25" rx="2" fill="#33202b"/>
        <rect x="72" y="7" width="10" height="29" rx="2" fill="#1d2833"/>
        <rect x="6" y="48" width="8" height="28" rx="2" fill="#1d2833"/>
        <rect x="16" y="51" width="10" height="25" rx="2" fill="#33202b"/>
        <rect x="28" y="46" width="7" height="30" rx="2" fill="#2e2a20"/>
        <rect x="46" y="49" width="8" height="27" rx="2" fill="#1d2833"/>
        <rect x="56" y="47" width="10" height="29" rx="2" fill="#33202b"/>
        <rect x="70" y="52" width="7" height="24" rx="2" fill="#2e2a20"/>
        <rect x="80" y="48" width="9" height="28" rx="2" fill="#3a2a1c"/>
      </g>
    </pattern>
    <radialGradient id="livre-maudit-b-glow" cx="0.5" cy="0.5" r="0.5">
      <stop offset="0" stop-color="#ffd76a" stop-opacity="0.5"/>
      <stop offset="1" stop-color="#ffd76a" stop-opacity="0"/>
    </radialGradient>
  </defs>
  <!-- Mur du fond : rayonnages, poutres, lustre, livre flottant -->
  <rect x="0" y="0" width="750" height="640" fill="url(#livre-maudit-b-shelf)"/>
  <rect x="0" y="0" width="750" height="56" fill="#1a120c"/>
  <g fill="#241a12" stroke="#05060c" stroke-width="3"><rect x="250" y="0" width="26" height="60"/><rect x="540" y="0" width="26" height="60"/></g>
  <rect x="0" y="0" width="750" height="640" fill="#05060c" opacity="0.3"/>
  <ellipse cx="560" cy="120" rx="140" ry="90" fill="url(#livre-maudit-b-glow)" opacity="0.6"/>
  <g stroke="#05060c" stroke-width="4" stroke-linejoin="round">
    <path d="M560 56 V90" fill="none"/>
    <path d="M518 90 H602 L592 110 H528 Z" fill="#4a3826"/>
    <g fill="#e8dcc0"><rect x="525" y="70" width="9" height="21"/><rect x="555" y="66" width="9" height="25"/><rect x="586" y="70" width="9" height="21"/></g>
  </g>
  <g fill="#ffd76a"><path d="M529 70 q-4 -9 0 -15 q4 6 0 15 Z"/><path d="M559 66 q-4 -9 0 -15 q4 6 0 15 Z"/><path d="M590 70 q-4 -9 0 -15 q4 6 0 15 Z"/></g>
  <g stroke="#05060c" stroke-width="3" opacity="0.8">
    <path d="M640 230 L686 238 L682 262 L636 254 Z" fill="#1d2833"/><path d="M636 254 L682 262 L680 268 L634 260 Z" fill="#c8bea4"/>
  </g>
  <!-- Sol de planches -->
  <rect x="0" y="640" width="750" height="694" fill="#2b2118"/>
  <path d="M0 640 H750" stroke="#05060c" stroke-width="5"/>
  <g stroke="#140e0a" stroke-width="4"><path d="M0 690 H750 M0 760 H750 M0 860 H750 M0 1000 H750 M0 1180 H750"/><path d="M200 640 v50 M520 640 v50 M330 690 v70 M640 690 v70 M120 760 v100 M450 760 v100"/></g>
  <!-- La victime : un gros grimoire rouge, à moitié tiré du rayonnage -->
  <g transform="translate(580 330) scale(0.7) translate(-440 -380)" stroke="#05060c" stroke-linejoin="round">
    <rect x="402" y="140" width="80" height="420" rx="6" fill="#6b2a30" stroke-width="5"/>
    <g stroke="#caa23a" stroke-width="5" opacity="0.7"><path d="M404 172 H480 M404 528 H480"/></g>
    <path d="M482 146 L508 136 L508 548 L482 556 Z" fill="#c8bea4" stroke-width="4"/>
    <g transform="rotate(-16 360 236)"><rect x="350" y="150" width="30" height="86" rx="3" fill="#1d2833" stroke-width="4"/></g>
    <g transform="rotate(14 540 236)"><rect x="522" y="156" width="28" height="80" rx="3" fill="#33202b" stroke-width="4"/></g>
  </g>
  <!-- Ombre au sol (il flotte) -->
  <ellipse cx="450" cy="654" rx="150" ry="13" fill="#05060c" opacity="0.5"/>
  <!-- Tas de pages déchiquetées -->
  <g stroke="#05060c" stroke-width="3" stroke-linejoin="round">
    <path d="M360 652 L392 640 L400 656 L366 664 Z" fill="#d8ceb4"/>
    <path d="M384 646 L420 636 L428 652 L392 660 Z" fill="#e8e4d8"/>
    <path d="M470 650 L506 644 L508 660 L474 664 Z" fill="#ddd6c4"/>
    <path d="M500 640 L528 634 L534 650 L504 656 Z" fill="#c8bea4"/>
  </g>
  <!-- LE FANTÔME, de dos : drap violet, il tient le livre à bout de bras contre le rayonnage -->
  <g transform="translate(380 560) scale(1.25) rotate(6) translate(-390 -540)" stroke="#05060c" stroke-linejoin="round">
    <path d="M306 526 C297 370 334 232 398 232 C463 232 481 361 472 526 C444 499 426 545 398 517 C371 545 343 499 306 526 Z" fill="#5a3a7a" stroke-width="6" opacity="0.95"/>
    <path d="M330 500 C326 420 334 330 360 268 M420 510 C428 440 430 360 420 290" fill="none" stroke="#3a2455" stroke-width="7" stroke-linecap="round" opacity="0.75"/>
    <path d="M360 250 C380 240 400 240 418 246" fill="none" stroke="#7a55a0" stroke-width="7" stroke-linecap="round" opacity="0.7"/>
    <path d="M462 330 C490 320 520 316 548 326 C552 346 544 362 530 366 C506 358 484 362 466 372 Z" fill="#5a3a7a" stroke-width="5"/>
  </g>
  <!-- LE LIVRE MAUDIT, de dos : il dévore le grimoire, on ne voit que son dos -->
  <g transform="translate(580 330) scale(0.7) rotate(5) translate(-440 -380)" stroke="#05060c" stroke-linejoin="round">
    <!-- Le marque-page qui pend sous le dos -->
    <path d="M470 414 C474 450 462 470 476 500 L468 514 L482 506 L490 518 L490 498 C482 470 488 446 484 414 Z" fill="#b8336a" stroke-width="3.5"/>
    <!-- Tranches de pages des deux côtés -->
    <path d="M352 372 L300 330 L294 452 L352 412 Z" fill="#e8e4d8" stroke-width="4"/>
    <path d="M528 372 L586 330 L590 452 L528 412 Z" fill="#e8e4d8" stroke-width="4"/>
    <g stroke="#b8ae96" stroke-width="2.5"><path d="M340 368 L306 344 M340 392 L300 392 M340 410 L302 436"/><path d="M540 368 L578 344 M540 392 L582 392 M540 410 L582 436"/></g>
    <!-- Couverture du haut (dos), qui part vers le mur -->
    <path d="M346 376 L534 376 L586 330 L566 286 L314 286 L300 330 Z" fill="#5a3a7a" stroke-width="5"/>
    <path d="M330 300 L552 300 L566 330 L524 362 L356 362 L316 330 Z" fill="none" stroke="#3a2455" stroke-width="5"/>
    <g fill="#caa23a" stroke-width="3"><path d="M314 286 L344 286 L322 308 Z"/><path d="M566 286 L536 286 L558 308 Z"/></g>
    <!-- Couverture du bas -->
    <path d="M346 410 L534 410 L590 452 L572 482 L308 482 L294 452 Z" fill="#5a3a7a" stroke-width="5"/>
    <path d="M356 424 L524 424 L566 452 L554 470 L326 470 L316 452 Z" fill="none" stroke="#3a2455" stroke-width="4"/>
    <g fill="#caa23a" stroke-width="3"><path d="M308 482 L338 482 L314 462 Z"/><path d="M572 482 L542 482 L566 462 Z"/></g>
    <!-- Dos du livre, face à nous : nervures dorées et rune -->
    <rect x="340" y="370" width="200" height="46" rx="20" fill="#3a2455" stroke-width="6"/>
    <g stroke="#caa23a" stroke-width="5"><path d="M370 372 V414 M510 372 V414"/></g>
    <path d="M424 392 a8 8 0 1 0 8 8 a5 5 0 1 1 -5 -5 M452 404 l8 -12 l8 12 l-8 6 Z" fill="none" stroke="#c084fc" stroke-width="4" stroke-linecap="round"/>
  </g>
  <g transform="translate(580 330) scale(0.7) translate(-440 -380)">
  <path d="M500 312 C524 300 546 316 544 340 C542 362 520 372 504 362 Z" fill="#5a3a7a" stroke="#05060c" stroke-width="5" stroke-linejoin="round"/>
  <!-- Bouts de pages qui giclent à chaque bouchée (gribouillis illisibles) -->
  <g stroke="#05060c" stroke-width="3" stroke-linejoin="round">
    <g transform="rotate(-28 270 270)"><rect x="248" y="246" width="40" height="50" rx="2" fill="#e8e4d8"/><path d="M255 260 q6 -5 12 0 t12 0 M255 274 q6 -5 12 0" fill="none" stroke="#7a6f8c" stroke-width="2.5"/></g>
    <g transform="rotate(30 620 300)"><rect x="600" y="278" width="36" height="46" rx="2" fill="#ddd6c4"/><path d="M606 292 q6 -5 12 0 t12 0" fill="none" stroke="#7a6f8c" stroke-width="2.5"/></g>
    <g transform="rotate(12 340 200)"><rect x="326" y="186" width="28" height="34" rx="2" fill="#d6cfbc"/></g>
    <g transform="rotate(-18 560 220)"><rect x="548" y="206" width="26" height="30" rx="2" fill="#e8e4d8"/></g>
    <g transform="rotate(50 280 470)"><rect x="268" y="458" width="26" height="30" rx="2" fill="#d8ceb4"/></g>
  </g>
  <!-- Les voisins de rayon tremblent -->
  <g stroke="#c8bea4" stroke-width="4" stroke-linecap="round" opacity="0.6"><path d="M326 168 l-14 4 M322 192 l-16 0 M574 172 l14 4 M578 196 l16 0"/></g>
  <!-- Traits de « crounch » -->
  <g stroke="#e8e4d8" stroke-width="5" stroke-linecap="round" opacity="0.7">
    <path d="M290 300 l-26 -14 M286 336 l-30 2 M296 270 l-14 -22"/>
    <path d="M598 300 l28 -14 M600 338 l30 2 M590 268 l16 -22"/>
  </g>
  <g fill="#c084fc" opacity="0.8"><circle cx="370" cy="240" r="5"/><circle cx="520" cy="250" r="4"/><circle cx="330" cy="520" r="4"/></g>
  </g>
  <!-- Premier plan : cachette derrière le flanc d'un rayonnage et une pile de gros volumes -->
  <rect x="0" y="0" width="750" height="1334" fill="#05060c" opacity="0.1"/>
  <path d="M0 0 H180 L190 1334 H0 Z" fill="#17110b" stroke="#05060c" stroke-width="6"/>
  <path d="M174 0 L184 1334" stroke="#2c2016" stroke-width="10"/>
  <g stroke="#0b0805" stroke-width="5"><path d="M0 300 H178 M0 620 H182 M0 940 H186"/></g>
  <g fill="#211710" stroke="#05060c" stroke-width="3">
    <rect x="20" y="220" width="22" height="80" rx="3"/><rect x="46" y="230" width="18" height="70" rx="3"/><rect x="68" y="214" width="26" height="86" rx="3"/>
    <rect x="24" y="540" width="24" height="80" rx="3"/><rect x="52" y="550" width="20" height="70" rx="3"/>
  </g>
  <g stroke="#05060c" stroke-width="6" stroke-linejoin="round">
    <path d="M500 1110 L740 1094 L750 1334 H496 Z" fill="#14100b"/>
    <path d="M494 1110 L744 1092 L746 1122 L496 1140 Z" fill="#1e1710"/>
    <path d="M540 1010 L736 998 L740 1094 L544 1106 Z" fill="#191209"/>
    <path d="M536 1010 L738 996 L740 1022 L538 1036 Z" fill="#231a12"/>
    <path d="M580 930 L730 922 L734 998 L584 1006 Z" fill="#160f09"/>
    <path d="M576 930 L732 920 L734 942 L578 952 Z" fill="#241a12"/>
  </g>
  <ellipse cx="400" cy="1300" rx="260" ry="40" fill="#05060c" opacity="0.4"/>
</svg>
